<?xml version="1.0" encoding="utf-8"?><!-- Uploaded to: SVG Repo, www.svgrepo.com, Generator: SVG Repo Mixer Tools -->
<svg fill="#000000" width="800px" height="800px" viewBox="0 -2.75 29.5 29.5" id="_11_-_Massage" data-name="11 - Massage" xmlns="http://www.w3.org/2000/svg">
  <path id="_11_-_Massage-2" d="M30.75,9.041A3.04,3.04,0,0,0,27.709,6H4.291A3.04,3.04,0,0,0,1.25,9.041V21.459A3.04,3.04,0,0,0,4.291,24.5h19.12a1.026,1.026,0,0,1,.725.3l4.907,4.907A1,1,0,0,0,30.75,29V9.041Zm-2,0V26.586l-3.2-3.2a3.024,3.024,0,0,0-2.139-.886H4.291A1.041,1.041,0,0,1,3.25,21.459V9.041A1.041,1.041,0,0,1,4.291,8H27.709A1.041,1.041,0,0,1,28.75,9.041Z" transform="translate(-1.25 -6)" fill-rule="evenodd"/>
</svg>